<svg width="555" height="172" viewBox="0 0 555 172" fill="none" xmlns="http://www.w3.org/2000/svg">
<g clip-path="url(#clip0_34_399)">
<path d="M551.661 171.188C552.076 171.306 552.508 171.065 552.625 170.649L554.536 163.877C554.653 163.461 554.411 163.029 553.996 162.912C553.58 162.795 553.149 163.037 553.032 163.452L551.334 169.472L545.315 167.773C544.899 167.656 544.467 167.898 544.35 168.313C544.233 168.729 544.475 169.16 544.89 169.278L551.661 171.188ZM1.56338 170.436C2.26234 170.787 2.26234 170.787 2.26232 170.787C2.26223 170.787 2.26235 170.787 2.26232 170.787C2.26248 170.785 2.26295 170.785 2.26336 170.785C2.26414 170.783 2.26539 170.78 2.26711 170.777C2.27052 170.769 2.27577 170.76 2.28285 170.746C2.29701 170.718 2.31851 170.676 2.34737 170.619C2.40508 170.507 2.49219 170.336 2.60886 170.114C2.8422 169.667 3.19374 169.004 3.66457 168.141L2.29248 167.392C1.81693 168.263 1.46089 168.935 1.22325 169.389C1.10444 169.617 1.01522 169.79 0.955459 169.906C0.92558 169.966 0.903064 170.009 0.887898 170.039C0.880314 170.055 0.874567 170.066 0.870655 170.074C0.8687 170.078 0.867202 170.081 0.866162 170.083C0.865643 170.084 0.865238 170.084 0.864947 170.084C0.864802 170.086 0.864686 170.086 0.864599 170.086C0.864583 170.086 0.864421 170.086 1.56338 170.436ZM6.76653 162.679C7.69505 161.098 8.76871 159.309 9.98889 157.339L8.65979 156.517C7.43291 158.498 6.35294 160.296 5.4184 161.888L6.76653 162.679ZM13.3463 152.044C14.4194 150.389 15.5716 148.647 16.8037 146.826L15.5088 145.949C14.2709 147.779 13.1131 149.53 12.0347 151.193L13.3463 152.044ZM20.3599 141.672C21.5227 140.019 22.743 138.317 24.0207 136.568L22.7586 135.646C21.4752 137.401 20.2495 139.112 19.0814 140.772L20.3599 141.672ZM27.7914 131.505C29.0124 129.895 30.2781 128.254 31.589 126.586L30.3601 125.62C29.0434 127.295 27.7722 128.943 26.5459 130.559L27.7914 131.505ZM35.4922 121.707C36.7943 120.108 38.1355 118.488 39.5165 116.85L38.3214 115.842C36.9346 117.487 35.5875 119.114 34.2799 120.72L35.4922 121.707ZM43.5727 112.123C44.9239 110.575 46.3092 109.014 47.7288 107.443L46.569 106.395C45.1432 107.972 43.752 109.54 42.395 111.094L43.5727 112.123ZM51.9926 102.807C53.3916 101.312 54.821 99.8103 56.2811 98.3032L55.1582 97.2151C53.6918 98.7287 52.2561 100.237 50.8513 101.738L51.9926 102.807ZM60.7047 93.8173C62.1599 92.3675 63.643 90.915 65.1545 89.4613L64.0709 88.3343C62.5527 89.7944 61.0628 91.2534 59.6014 92.7095L60.7047 93.8173ZM69.719 85.1495C71.2321 83.7456 72.7718 82.3423 74.3378 80.9409L73.2955 79.7756C71.7223 81.1831 70.1758 82.5929 68.6557 84.0032L69.719 85.1495ZM79.0451 76.8061C80.6127 75.4543 82.2052 74.1061 83.8228 72.7628L82.8241 71.5597C81.199 72.9095 79.599 74.2639 78.0244 75.6217L79.0451 76.8061ZM88.6748 68.8091C90.2937 67.5151 91.9363 66.227 93.6027 64.946L92.65 63.7062C90.9756 64.9932 89.3253 66.2876 87.6988 67.5876L88.6748 68.8091ZM98.6001 61.18C100.268 59.9482 101.958 58.7245 103.671 57.51L102.766 56.2344C101.045 57.4548 99.3469 58.6844 97.6713 59.9221L98.6001 61.18ZM108.813 53.9388C110.527 52.7737 112.262 51.6185 114.019 50.4741L113.166 49.1639C111.4 50.3138 109.656 51.4748 107.934 52.6457L108.813 53.9388ZM119.305 47.1062C121.062 46.0115 122.84 44.9284 124.638 43.8579L123.839 42.5143C122.031 43.5902 120.244 44.6788 118.479 45.779L119.305 47.1062ZM130.067 40.7015C131.864 39.6811 133.681 38.6736 135.518 37.68L134.775 36.3046C132.928 37.3033 131.101 38.316 129.295 39.3416L130.067 40.7015ZM141.086 34.7436C142.921 33.8009 144.774 32.8722 146.647 31.9588L145.961 30.5534C144.079 31.4717 142.216 32.4052 140.372 33.3529L141.086 34.7436ZM152.322 29.2642C154.199 28.3973 156.095 27.5459 158.009 26.7106L157.384 25.2774C155.46 26.117 153.554 26.9731 151.667 27.8445L152.322 29.2642ZM163.778 24.2674C165.698 23.4782 167.635 22.7058 169.592 21.9506L169.03 20.4918C167.063 21.2511 165.113 22.0278 163.183 22.8212L163.778 24.2674ZM175.439 19.7652C177.401 19.056 179.382 18.3644 181.379 17.6911L180.88 16.2094C178.871 16.8863 176.881 17.5816 174.908 18.2948L175.439 19.7652ZM187.291 15.769C189.28 15.1463 191.284 14.542 193.306 13.9568L192.871 12.4548C190.839 13.0432 188.824 13.6508 186.824 14.2768L187.291 15.769ZM199.317 12.2869C201.32 11.7536 203.34 11.2391 205.375 10.744L205.006 9.22462C202.96 9.72241 200.929 10.2397 198.915 10.7759L199.317 12.2869ZM211.5 9.3247C213.512 8.88111 215.542 8.45657 217.585 8.05168L217.282 6.51784C215.226 6.92491 213.187 7.35172 211.163 7.79768L211.5 9.3247ZM223.762 6.89659C225.801 6.53823 227.852 6.19943 229.919 5.88076L229.681 4.33537C227.603 4.65573 225.539 4.99633 223.491 5.35658L223.762 6.89659ZM236.1 4.99439C238.175 4.71912 240.263 4.46409 242.368 4.2299L242.194 2.67585C240.081 2.91127 237.979 3.16761 235.895 3.44435L236.1 4.99439ZM248.532 3.60765C250.6 3.42019 252.684 3.25283 254.781 3.1061L254.672 1.54628C252.564 1.69374 250.471 1.86196 248.391 2.05039L248.532 3.60765ZM261.052 2.73139C263.108 2.62942 265.176 2.54727 267.258 2.4854L267.213 0.922448C265.12 0.984636 263.04 1.0672 260.974 1.16967L261.052 2.73139ZM273.546 2.36104C274.6 2.35061 275.657 2.34537 276.718 2.34537V0.781738C275.652 0.781738 274.589 0.787008 273.531 0.797489L273.546 2.36104ZM276.718 2.34537C277.772 2.34537 278.823 2.35113 279.87 2.36257L279.886 0.79904C278.834 0.787528 277.777 0.781738 276.718 0.781738V2.34537ZM286.119 2.49903C288.19 2.56691 290.249 2.65702 292.297 2.76882L292.382 1.20751C290.323 1.0951 288.253 1.00449 286.169 0.936232L286.119 2.49903ZM298.545 3.17943C300.624 3.33935 302.691 3.5216 304.747 3.7256L304.9 2.16961C302.835 1.96447 300.755 1.78121 298.663 1.62039L298.545 3.17943ZM310.909 4.4065C312.99 4.65993 315.059 4.93562 317.115 5.23293L317.338 3.68538C315.271 3.38641 313.19 3.10918 311.097 2.85432L310.909 4.4065ZM323.24 6.18903C325.302 6.53445 327.352 6.90156 329.386 7.28969L329.678 5.75373C327.633 5.36343 325.572 4.99425 323.499 4.64688L323.24 6.18903ZM335.492 8.52557C337.523 8.96043 339.541 9.41612 341.544 9.89195L341.905 8.37063C339.89 7.89212 337.862 7.43387 335.819 6.99657L335.492 8.52557ZM347.613 11.4055C349.62 11.9304 351.615 12.4754 353.594 13.0398L354.023 11.536C352.033 10.9685 350.027 10.4205 348.007 9.89267L347.613 11.4055ZM359.584 14.8196C361.574 15.435 363.548 16.0699 365.509 16.7233L366.003 15.2399C364.033 14.5829 362.048 13.9446 360.047 13.3258L359.584 14.8196ZM371.389 18.7557C373.356 19.4594 375.307 20.1818 377.242 20.922L377.8 19.4614C375.855 18.7173 373.893 17.991 371.916 17.2834L371.389 18.7557ZM383.011 23.1987C384.95 23.9881 386.874 24.7954 388.78 25.6193L389.401 24.1839C387.484 23.3556 385.55 22.5441 383.6 21.7504L383.011 23.1987ZM394.452 28.1405C396.354 29.0101 398.24 29.8957 400.108 30.797L400.788 29.3886C398.909 28.4828 397.014 27.5923 395.102 26.7184L394.452 28.1405ZM405.683 33.5568C407.544 34.5016 409.387 35.4613 411.213 36.4351L411.948 35.0554C410.114 34.0767 408.261 33.1121 406.391 32.1625L405.683 33.5568ZM416.683 39.4229C418.501 40.4396 420.301 41.4697 422.083 42.5124L422.872 41.1628C421.081 40.115 419.272 39.0797 417.446 38.0582L416.683 39.4229ZM427.441 45.7178C429.215 46.8027 430.971 47.8996 432.709 49.0074L433.549 47.6889C431.804 46.5758 430.039 45.4737 428.257 44.3836L427.441 45.7178ZM437.95 52.4194C439.68 53.5693 441.392 54.7294 443.084 55.8985L443.973 54.6121C442.272 53.4377 440.554 52.2721 438.816 51.1171L437.95 52.4194ZM448.204 59.5066C449.891 60.7181 451.557 61.9381 453.204 63.1652L454.137 61.9115C452.484 60.6789 450.81 59.4536 449.115 58.2366L448.204 59.5066ZM458.197 66.9583C459.842 68.2293 461.463 69.5067 463.064 70.7892L464.041 69.5689C462.434 68.2808 460.805 66.9978 459.154 65.7213L458.197 66.9583ZM467.928 74.7539C469.527 76.0811 471.104 77.4124 472.658 78.7464L473.676 77.5596C472.116 76.2202 470.532 74.8832 468.925 73.5504L467.928 74.7539ZM477.388 82.8742C478.946 84.2569 480.48 85.6411 481.99 87.0249L483.045 85.8722C481.531 84.4827 479.991 83.093 478.426 81.7046L477.388 82.8742ZM486.579 91.3C488.097 92.7379 489.588 94.1738 491.055 95.6064L492.147 94.4881C490.675 93.0499 489.177 91.6082 487.653 90.1647L486.579 91.3ZM495.491 100.012C496.972 101.505 498.424 102.993 499.847 104.474L500.974 103.39C499.545 101.904 498.088 100.41 496.601 98.9106L495.491 100.012ZM504.118 108.986C505.564 110.538 506.978 112.079 508.358 113.606L509.518 112.557C508.131 111.024 506.713 109.478 505.261 107.92L504.118 108.986ZM512.475 118.232C513.877 119.831 515.242 121.413 516.567 122.973L517.759 121.961C516.427 120.394 515.057 118.807 513.65 117.201L512.475 118.232ZM520.581 127.769C521.925 129.401 523.226 131.006 524.483 132.58L525.705 131.604C524.444 130.024 523.137 128.413 521.788 126.775L520.581 127.769ZM528.338 137.484C529.661 139.195 530.927 140.861 532.137 142.477L533.388 141.54C532.175 139.917 530.904 138.245 529.575 136.527L528.338 137.484ZM535.839 147.509C537.123 149.285 538.327 150.983 539.451 152.595L540.733 151.7C539.604 150.081 538.395 148.376 537.106 146.593L535.839 147.509ZM542.971 157.744C544.253 159.655 545.385 161.389 546.367 162.925L547.683 162.08C546.695 160.537 545.557 158.795 544.271 156.873L542.971 157.744ZM549.68 168.246C550.185 169.084 550.563 169.73 550.816 170.163C550.941 170.38 551.037 170.546 551.099 170.655C551.131 170.71 551.154 170.751 551.168 170.779C551.176 170.793 551.182 170.802 551.185 170.808C551.188 170.812 551.188 170.815 551.19 170.816C551.19 170.816 551.19 170.818 551.192 170.818C551.192 170.818 551.192 170.818 551.873 170.436C552.555 170.055 552.555 170.055 552.555 170.055L552.553 170.052C552.552 170.048 552.55 170.047 552.549 170.042C552.544 170.034 552.538 170.023 552.53 170.009C552.514 169.98 552.489 169.937 552.456 169.881C552.392 169.767 552.295 169.6 552.169 169.379C551.912 168.937 551.529 168.285 551.02 167.439L549.68 168.246Z" fill="#0C73FE"/>
</g>
<defs>
<clipPath id="clip0_34_399">
<rect width="555" height="172" fill="white"/>
</clipPath>
</defs>
</svg>
