<svg width="62" height="19" viewBox="0 0 62 19" fill="none" xmlns="http://www.w3.org/2000/svg">
<path id="Vector" d="M0.840881 18.497L61.6206 17.1082H61.8314V0.27497L1.05164 1.83203H0.840881V18.6653V18.497ZM47.6269 0.611643L61.4099 0.23291V16.7295L47.6269 17.0241V0.611643ZM46.5311 0.611643H47.2055V17.0241H46.5311V0.611643ZM45.2666 0.611643H46.1095V17.0241H45.2666V0.611643ZM30.8093 0.990376L44.8451 0.611643V17.0241L30.8093 17.3607V0.990376ZM29.8398 0.990376H30.4299V17.3607H29.8398V0.990376ZM28.6175 0.990376H29.4605V17.3607H28.6175V0.990376ZM14.5395 1.36911L28.2381 1.0325V17.3607L14.5395 17.6974V1.36911ZM13.5279 1.36911H14.3287V17.6974H13.6965L13.5279 1.36911ZM12.2634 1.36911H13.1486V17.6974H12.2634V1.36911ZM2.10538 1.62166L11.8841 1.41123V17.6974H2.10538V1.62166ZM1.05164 1.62166H1.68386V17.9078H1.00945L1.05164 1.62166Z" fill="black" fill-opacity="0.09"/>
</svg>
