<svg width="31" height="24" viewBox="0 0 31 24" fill="none" xmlns="http://www.w3.org/2000/svg">
<path fill-rule="evenodd" clip-rule="evenodd" d="M3.72 0C1.6655 0 0 1.6655 0 3.72V18.6C0 20.6545 1.6655 22.32 3.72 22.32H19.9635C19.1073 21.1802 18.6 19.7633 18.6 18.228C18.6 14.4615 21.6534 11.408 25.42 11.408C27.0687 11.408 28.5808 11.9931 29.76 12.9669V3.72C29.76 1.6655 28.0945 0 26.04 0H3.72Z" fill="#0C73FE"/>
<path d="M6.696 6.448L14.339 10.1537C14.6807 10.3193 15.0793 10.3193 15.421 10.1537L23.064 6.448" stroke="white" stroke-width="1.488" stroke-linecap="round"/>
<g clip-path="url(#clip0_34_384)">
<path d="M29.2039 14.6826C28.9877 14.7523 28.9319 14.7942 28.5239 15.2005L28.1315 15.5911L29.0854 16.5449L30.0409 17.5005L30.4089 17.1343C30.8012 16.7437 30.8919 16.6286 30.9494 16.4473C31.0279 16.1927 31.0105 15.959 30.8919 15.7131C30.8256 15.5736 30.8012 15.544 30.4437 15.1883C30.0427 14.7872 29.9729 14.7366 29.7445 14.6756C29.6102 14.639 29.3243 14.6425 29.2039 14.6826Z" fill="#0C73FE"/>
<path d="M25.1114 18.613L22.6317 21.0926L22.3493 22.226C22.1417 23.0578 22.0685 23.3734 22.079 23.4083C22.0947 23.4711 22.1592 23.5373 22.2202 23.553C22.2673 23.5652 24.4452 23.0369 24.5307 22.9915C24.5551 22.9793 25.6833 21.8598 27.0382 20.5049L29.5004 18.041L28.5448 17.0854L27.591 16.1316L25.1114 18.613Z" fill="#0C73FE"/>
</g>
<defs>
<clipPath id="clip0_34_384">
<rect width="8.928" height="8.928" fill="white" transform="translate(22.072 14.6321)"/>
</clipPath>
</defs>
</svg>
