<svg width="50" height="50" viewBox="0 0 50 50" fill="none" xmlns="http://www.w3.org/2000/svg">
<g id="Group 145 1" clip-path="url(#clip0_20_44)">
<path id="Vector" d="M0 1.66667C0 0.746192 0.746192 0 1.66667 0H24.3216C24.9863 0 25.5875 0.395011 25.8513 1.00515L32.0833 15.4167L36.1529 26.8115C36.2172 26.9913 36.25 27.181 36.25 27.372V38.7231C36.25 40.3667 38.3774 41.0181 39.2977 39.6562L44.9101 31.3498C45.6579 30.2429 44.8649 28.75 43.5291 28.75H6.47507C5.06201 28.75 4.29008 30.3981 5.1947 31.4837L13.3333 41.25L0.391814 25.8819C0.138767 25.5814 0 25.2012 0 24.8084V1.66667Z" fill="#0C73FE"/>
<path id="Vector_2" d="M25 50C38.8071 50 50 38.8071 50 25C50 11.1929 38.8071 0 25 0C11.1929 0 0 11.1929 0 25C0 38.8071 11.1929 50 25 50Z" fill="#0C73FE"/>
<path id="Vector_3" d="M6.75 28.3667H8.38333C9.1 27 9.25 24.7333 9.25 19.2667H23.6667V28.3667H25.6667V33.8333H21.2167V31.6667H11.2V33.8333H6.75V28.3667ZM12.7667 28.3667H18.9333V22.5667H13.5167C13.5167 25.05 13.3 27.3167 12.7667 28.3667ZM26.4922 31.6667V19.2667H41.7422V22.1833H31.2255V23.6667H36.6588C41.6755 23.6667 42.9255 25.3167 42.9255 27.5V27.65C42.9255 29.8667 41.6755 31.6667 36.6588 31.6667H26.4922ZM31.2255 28.6667H36.1422C37.6255 28.6667 38.0255 28.15 38.0255 27.5667V27.5167C38.0255 26.9167 37.6255 26.4667 36.1422 26.4667H31.2255V28.6667Z" fill="white"/>
</g>
<defs>
<clipPath id="clip0_20_44">
<rect width="50" height="50" fill="white"/>
</clipPath>
</defs>
</svg>
