<svg width="140" height="20" viewBox="0 0 140 20" fill="none" xmlns="http://www.w3.org/2000/svg">
<g id="Group 771004">
<path id="Star 1" d="M10 0L12.2451 6.90983H19.5106L13.6327 11.1803L15.8779 18.0902L10 13.8197L4.12215 18.0902L6.36729 11.1803L0.489435 6.90983H7.75486L10 0Z" fill="#D9D9D9"/>
<path id="Star 2" d="M40 0L42.2451 6.90983H49.5106L43.6327 11.1803L45.8779 18.0902L40 13.8197L34.1221 18.0902L36.3673 11.1803L30.4894 6.90983H37.7549L40 0Z" fill="#D9D9D9"/>
<path id="Star 3" d="M70 0L72.2451 6.90983H79.5106L73.6327 11.1803L75.8779 18.0902L70 13.8197L64.1221 18.0902L66.3673 11.1803L60.4894 6.90983H67.7549L70 0Z" fill="#D9D9D9"/>
<path id="Star 4" d="M100 0L102.245 6.90983H109.511L103.633 11.1803L105.878 18.0902L100 13.8197L94.1221 18.0902L96.3673 11.1803L90.4894 6.90983H97.7549L100 0Z" fill="#D9D9D9"/>
<path id="Star 5" d="M130 0L132.245 6.90983H139.511L133.633 11.1803L135.878 18.0902L130 13.8197L124.122 18.0902L126.367 11.1803L120.489 6.90983H127.755L130 0Z" fill="#D9D9D9"/>
</g>
</svg>
